<svg xmlns="http://www.w3.org/2000/svg" width="640" height="220" viewBox="0 0 640 220"><defs><linearGradient id="paper" x1="0" y1="0" x2="0" y2="1"><stop stop-color="#faf7ef"/><stop offset="1" stop-color="#e9e2d4"/></linearGradient><linearGradient id="dark" x1="0" y1="0" x2="0" y2="1"><stop stop-color="#202528"/><stop offset="1" stop-color="#111416"/></linearGradient><linearGradient id="blue" x1="0" y1="0" x2="1" y2="0"><stop stop-color="#297ea8"/><stop offset=".55" stop-color="#69d5f3"/><stop offset="1" stop-color="#b9f4ff"/></linearGradient><filter id="shadow" x="-30%" y="-30%" width="160%" height="160%"><feDropShadow dx="0" dy="6" stdDeviation="7" flood-opacity=".28"/></filter><filter id="glow" x="-50%" y="-50%" width="200%" height="200%"><feGaussianBlur stdDeviation="5" result="b"/><feMerge><feMergeNode in="b"/><feMergeNode in="SourceGraphic"/></feMerge></filter></defs><path d="M8 205c69-29 105-95 164-118 25-10 52 13 70 29 35-53 75-92 117-91 45 2 78 63 103 96 27-24 60-35 89-17 31 19 53 66 81 101z" fill="#252b2e" opacity=".22"/><path d="M9 205c61-24 109-67 154-89 34-17 57 16 79 27 44-70 79-97 117-104 42 3 69 55 103 99 35-34 71-30 101-5 20 17 39 45 69 72" fill="none" stroke="#252b2e" stroke-width="5" opacity=".58"/><path d="M240 143l43-23 34 5 42-86 24 76 47 32M112 148l51-32 22 28" fill="none" stroke="#252b2e" stroke-width="3" opacity=".38"/></svg>