<svg xmlns="http://www.w3.org/2000/svg" width="520" height="120" viewBox="0 0 520 120"><defs><linearGradient id="paper" x1="0" y1="0" x2="0" y2="1"><stop stop-color="#faf7ef"/><stop offset="1" stop-color="#e9e2d4"/></linearGradient><linearGradient id="dark" x1="0" y1="0" x2="0" y2="1"><stop stop-color="#202528"/><stop offset="1" stop-color="#111416"/></linearGradient><linearGradient id="blue" x1="0" y1="0" x2="1" y2="0"><stop stop-color="#297ea8"/><stop offset=".55" stop-color="#69d5f3"/><stop offset="1" stop-color="#b9f4ff"/></linearGradient><filter id="shadow" x="-30%" y="-30%" width="160%" height="160%"><feDropShadow dx="0" dy="6" stdDeviation="7" flood-opacity=".28"/></filter><filter id="glow" x="-50%" y="-50%" width="200%" height="200%"><feGaussianBlur stdDeviation="5" result="b"/><feMerge><feMergeNode in="b"/><feMergeNode in="SourceGraphic"/></feMerge></filter></defs><path d="M18 4H502l14 14v84l-14 14H18L4 102V18z" fill="#34383a" stroke="#515557" stroke-width="3"/><path d="M26 12H494M26 108H494" stroke="#777b7a" stroke-width="2" opacity=".9"/><path d="M11 22l11-11M509 22l-11-11M11 98l11 11M509 98l-11 11" stroke="#777b7a" stroke-width="2"/><g transform="translate(62 60) scale(0.85)" fill="none" stroke="#909697" stroke-width="4" stroke-linecap="round"><rect x="-18" y="-2" width="36" height="30" rx="4" fill="#252b2e"/><path d="M-11-2v-9a11 11 0 0122 0v9"/><path d="M0 8v8"/></g></svg>