<svg xmlns="http://www.w3.org/2000/svg" width="1080" height="716" viewBox="0 0 1080 716"><defs><linearGradient id="paper" x1="0" y1="0" x2="0" y2="1"><stop stop-color="#faf7ef"/><stop offset="1" stop-color="#e9e2d4"/></linearGradient><linearGradient id="dark" x1="0" y1="0" x2="0" y2="1"><stop stop-color="#202528"/><stop offset="1" stop-color="#111416"/></linearGradient><linearGradient id="blue" x1="0" y1="0" x2="1" y2="0"><stop stop-color="#297ea8"/><stop offset=".55" stop-color="#69d5f3"/><stop offset="1" stop-color="#b9f4ff"/></linearGradient><filter id="shadow" x="-30%" y="-30%" width="160%" height="160%"><feDropShadow dx="0" dy="6" stdDeviation="7" flood-opacity=".28"/></filter><filter id="glow" x="-50%" y="-50%" width="200%" height="200%"><feGaussianBlur stdDeviation="5" result="b"/><feMerge><feMergeNode in="b"/><feMergeNode in="SourceGraphic"/></feMerge></filter></defs><rect x="10" y="10" width="1060" height="696" rx="3" fill="url(#paper)" stroke="#15191c" stroke-width="4"/><rect x="22" y="22" width="1036" height="672" rx="1" fill="none" stroke="#15191c" stroke-width="2" opacity=".78"/><g transform="translate(22 22) scale(1 1)" fill="none" stroke="#464b4c" stroke-width="2" stroke-linecap="square"><path d="M0 26V0h26M8 26V8h18"/><path d="M4 4l8 8" opacity=".42"/></g><g transform="translate(1058 22) scale(-1 1)" fill="none" stroke="#464b4c" stroke-width="2" stroke-linecap="square"><path d="M0 26V0h26M8 26V8h18"/><path d="M4 4l8 8" opacity=".42"/></g><g transform="translate(22 694) scale(1 -1)" fill="none" stroke="#464b4c" stroke-width="2" stroke-linecap="square"><path d="M0 26V0h26M8 26V8h18"/><path d="M4 4l8 8" opacity=".42"/></g><g transform="translate(1058 694) scale(-1 -1)" fill="none" stroke="#464b4c" stroke-width="2" stroke-linecap="square"><path d="M0 26V0h26M8 26V8h18"/><path d="M4 4l8 8" opacity=".42"/></g><path d="M40 116H1040M310 142V594M742 142V594M40 610H1040" stroke="#464b4c" stroke-width="2"/><text x="540" y="78" font-family="Georgia,serif" font-size="31" font-weight="600" text-anchor="middle" fill="#15191c" letter-spacing="1">TECHNIQUES</text><text x="170" y="160" font-family="Georgia,serif" font-size="25" font-weight="400" text-anchor="middle" fill="#15191c" letter-spacing="1">Tomes</text><g transform="translate(55 170)"><path d="M10 8H103M127 8H220" stroke="#464b4c" stroke-width="2"/><path d="M115 1l7 7-7 7-7-7z" fill="none" stroke="#464b4c" stroke-width="2"/></g><g transform="translate(55 205) scale(.42)"><path d="M18 4H502l14 14v84l-14 14H18L4 102V18z" fill="#171a1c" stroke="#d9ad5b" stroke-width="3" filter="url(#glow)"/><path d="M26 12H494M26 108H494" stroke="#fffaf0" stroke-width="2" opacity=".9"/><path d="M11 22l11-11M509 22l-11-11M11 98l11 11M509 98l-11 11" stroke="#fffaf0" stroke-width="2"/></g><text x="122" y="239" font-family="Segoe UI,Arial,sans-serif" font-size="18" font-weight="600" text-anchor="start" fill="#fffaf0">Tome Épée I</text><g transform="translate(55 275) scale(.42)"><path d="M18 4H502l14 14v84l-14 14H18L4 102V18z" fill="#15191c" stroke="#464b4c" stroke-width="3"/><path d="M26 12H494M26 108H494" stroke="#ddd5c4" stroke-width="2" opacity=".9"/><path d="M11 22l11-11M509 22l-11-11M11 98l11 11M509 98l-11 11" stroke="#ddd5c4" stroke-width="2"/></g><text x="122" y="309" font-family="Segoe UI,Arial,sans-serif" font-size="18" font-weight="400" text-anchor="start" fill="#fffaf0">Tome Épée II</text><g transform="translate(55 345) scale(.42)"><path d="M18 4H502l14 14v84l-14 14H18L4 102V18z" fill="#15191c" stroke="#464b4c" stroke-width="3"/><path d="M26 12H494M26 108H494" stroke="#ddd5c4" stroke-width="2" opacity=".9"/><path d="M11 22l11-11M509 22l-11-11M11 98l11 11M509 98l-11 11" stroke="#ddd5c4" stroke-width="2"/></g><text x="122" y="379" font-family="Segoe UI,Arial,sans-serif" font-size="18" font-weight="400" text-anchor="start" fill="#8d918d">???</text><g transform="translate(88 369) scale(.42)"><g transform="translate(0 0) scale(0.8)" fill="none" stroke="#8d918d" stroke-width="4" stroke-linecap="round"><rect x="-18" y="-2" width="36" height="30" rx="4" fill="#252b2e"/><path d="M-11-2v-9a11 11 0 0122 0v9"/><path d="M0 8v8"/></g></g><g transform="translate(55 415) scale(.42)"><path d="M18 4H502l14 14v84l-14 14H18L4 102V18z" fill="#15191c" stroke="#464b4c" stroke-width="3"/><path d="M26 12H494M26 108H494" stroke="#ddd5c4" stroke-width="2" opacity=".9"/><path d="M11 22l11-11M509 22l-11-11M11 98l11 11M509 98l-11 11" stroke="#ddd5c4" stroke-width="2"/></g><text x="122" y="449" font-family="Segoe UI,Arial,sans-serif" font-size="18" font-weight="400" text-anchor="start" fill="#8d918d">???</text><g transform="translate(88 439) scale(.42)"><g transform="translate(0 0) scale(0.8)" fill="none" stroke="#8d918d" stroke-width="4" stroke-linecap="round"><rect x="-18" y="-2" width="36" height="30" rx="4" fill="#252b2e"/><path d="M-11-2v-9a11 11 0 0122 0v9"/><path d="M0 8v8"/></g></g><text x="526" y="160" font-family="Georgia,serif" font-size="25" font-weight="400" text-anchor="middle" fill="#15191c" letter-spacing="1">Techniques</text><g transform="translate(350 170)"><path d="M10 8H163M187 8H340" stroke="#464b4c" stroke-width="2"/><path d="M175 1l7 7-7 7-7-7z" fill="none" stroke="#464b4c" stroke-width="2"/></g><g transform="translate(355 220) scale(.62)"><path d="M18 6h124l12 12v124l-12 12H18L6 142V18z" fill="url(#dark)" stroke="#d9ad5b" stroke-width="4" filter="url(#glow)"/><path d="M22 14h116M22 146h116" stroke="#d9ad5b" stroke-width="2" opacity=".55"/><g transform="scale(.8) translate(16 16)"><path d="M19 105C55 86 80 52 107 17 91 70 57 104 19 105z" fill="#f6f0df"/></g></g><g transform="translate(480 220) scale(.62)"><path d="M18 6h124l12 12v124l-12 12H18L6 142V18z" fill="url(#dark)" stroke="#464b4c" stroke-width="4"/><path d="M22 14h116M22 146h116" stroke="#464b4c" stroke-width="2" opacity=".55"/><g transform="scale(.8) translate(16 16)"><path d="M19 105C55 86 80 52 107 17 91 70 57 104 19 105z" fill="#f6f0df"/></g></g><g transform="translate(605 220) scale(.62)"><path d="M18 6h124l12 12v124l-12 12H18L6 142V18z" fill="#1c2022" stroke="#555b5e" stroke-width="4"/><path d="M22 14h116M22 146h116" stroke="#555b5e" stroke-width="2" opacity=".55"/><g transform="translate(80 80) scale(1.1)" fill="none" stroke="#8b9091" stroke-width="4" stroke-linecap="round"><rect x="-18" y="-2" width="36" height="30" rx="4" fill="#252b2e"/><path d="M-11-2v-9a11 11 0 0122 0v9"/><path d="M0 8v8"/></g></g><g transform="translate(418 355) scale(.62)"><path d="M18 6h124l12 12v124l-12 12H18L6 142V18z" fill="url(#dark)" stroke="#464b4c" stroke-width="4"/><path d="M22 14h116M22 146h116" stroke="#464b4c" stroke-width="2" opacity=".55"/><g transform="scale(.8) translate(16 16)"><path d="M19 105C55 86 80 52 107 17 91 70 57 104 19 105z" fill="#f6f0df"/></g></g><g transform="translate(543 355) scale(.62)"><path d="M18 6h124l12 12v124l-12 12H18L6 142V18z" fill="#292d2f" stroke="#777c7d" stroke-width="4"/><path d="M22 14h116M22 146h116" stroke="#777c7d" stroke-width="2" opacity=".55"/><g transform="translate(80 80) scale(1.1)" fill="none" stroke="#aeb2b0" stroke-width="5" stroke-linecap="round"><path d="M-12-16c2-15 25-16 27-2 2 13-15 13-15 25"/><path d="M0 22v1"/></g></g><text x="908" y="160" font-family="Georgia,serif" font-size="25" font-weight="400" text-anchor="middle" fill="#15191c" letter-spacing="1">Détails</text><g transform="translate(778 170)"><path d="M10 8H118M142 8H250" stroke="#464b4c" stroke-width="2"/><path d="M130 1l7 7-7 7-7-7z" fill="none" stroke="#464b4c" stroke-width="2"/></g><text x="776" y="228" font-family="Georgia,serif" font-size="25" font-weight="400" text-anchor="start" fill="#15191c" letter-spacing="1">Slash frontal</text><text x="776" y="270" font-family="Segoe UI,Arial,sans-serif" font-size="17" font-weight="400" text-anchor="start" fill="#15191c">Un arc de lame rapide et précis.</text><text x="776" y="330" font-family="Segoe UI,Arial,sans-serif" font-size="15" font-weight="600" text-anchor="start" fill="#8d918d">Coût en Qi</text><text x="1015" y="330" font-family="Segoe UI,Arial,sans-serif" font-size="18" font-weight="600" text-anchor="end" fill="#15191c">25 Qi</text><text x="776" y="374" font-family="Segoe UI,Arial,sans-serif" font-size="15" font-weight="600" text-anchor="start" fill="#8d918d">Cooldown</text><text x="1015" y="374" font-family="Segoe UI,Arial,sans-serif" font-size="18" font-weight="600" text-anchor="end" fill="#15191c">4 sec</text><g transform="translate(792 460) scale(.52)"><path d="M18 4H462l14 14v84l-14 14H18L4 102V18z" fill="#171a1c" stroke="#d9ad5b" stroke-width="3" filter="url(#glow)"/><path d="M26 12H454M26 108H454" stroke="#fffaf0" stroke-width="2" opacity=".9"/><path d="M11 22l11-11M469 22l-11-11M11 98l11 11M469 98l-11 11" stroke="#fffaf0" stroke-width="2"/></g><text x="917" y="502" font-family="Segoe UI,Arial,sans-serif" font-size="18" font-weight="600" text-anchor="middle" fill="#fffaf0">ÉQUIPER</text><g transform="translate(30 631)"><path d="M10 0h219l10 10v45l-10 10H10L0 55V10z" fill="#f2ede2" stroke="#464b4c" stroke-width="2"/><path d="M18 8h203M18 57h203" stroke="#464b4c" stroke-width="1" opacity=".55"/><text x="119.5" y="41" font-family="Segoe UI,Arial,sans-serif" font-size="20" font-weight="400" text-anchor="middle" fill="#15191c">Profil</text></g><g transform="translate(293 631)"><path d="M10 0h219l10 10v45l-10 10H10L0 55V10z" fill="#15191c" stroke="#d9ad5b" stroke-width="2"/><path d="M18 8h203M18 57h203" stroke="#d9ad5b" stroke-width="1" opacity=".55"/><text x="119.5" y="41" font-family="Segoe UI,Arial,sans-serif" font-size="20" font-weight="600" text-anchor="middle" fill="#fffaf0">Techniques</text></g><g transform="translate(556 631)"><path d="M10 0h219l10 10v45l-10 10H10L0 55V10z" fill="#f2ede2" stroke="#464b4c" stroke-width="2"/><path d="M18 8h203M18 57h203" stroke="#464b4c" stroke-width="1" opacity=".55"/><text x="119.5" y="41" font-family="Segoe UI,Arial,sans-serif" font-size="20" font-weight="400" text-anchor="middle" fill="#15191c">Cultivation</text></g><g transform="translate(819 631)"><path d="M10 0h219l10 10v45l-10 10H10L0 55V10z" fill="#f2ede2" stroke="#464b4c" stroke-width="2"/><path d="M18 8h203M18 57h203" stroke="#464b4c" stroke-width="1" opacity=".55"/><text x="119.5" y="41" font-family="Segoe UI,Arial,sans-serif" font-size="20" font-weight="400" text-anchor="middle" fill="#15191c">Infos</text></g><g transform="translate(982 28) scale(.72)"><path d="M18 4H78l14 14v60l-14 14H18L4 78V18z" fill="#15191c" stroke="#464b4c" stroke-width="3"/><path d="M26 12H70M26 84H70" stroke="#ddd5c4" stroke-width="2" opacity=".9"/><path d="M11 22l11-11M85 22l-11-11M11 74l11 11M85 74l-11 11" stroke="#ddd5c4" stroke-width="2"/><path d="M31 31l34 34M65 31L31 65" stroke="#ddd5c4" stroke-width="7" stroke-linecap="round"/></g></svg>